<svg width="105" height="120" viewBox="0 0 105 120" fill="none" xmlns="http://www.w3.org/2000/svg">
<path d="M97.1578 0.382481C92.5167 -1.97496 71.7174 6.7553 65.3407 21.3256C64.2782 23.74 63.4479 26.1923 62.8735 28.6121C62.8373 28.7667 62.7736 28.8751 62.7262 28.9361C59.4124 28.1621 55.9575 27.7703 52.4489 27.7689C52.4464 27.7689 52.4451 27.7689 52.4426 27.7689C52.4401 27.7689 52.4389 27.7689 52.4364 27.7689C48.9191 27.7703 45.4542 28.1634 42.1604 28.9361C42.1104 28.8738 42.048 28.7653 42.0118 28.6135C41.4374 26.1923 40.6071 23.74 39.547 21.331C33.1679 6.75665 12.3711 -1.96412 7.70629 0.393326C3.08644 2.79686 -3.80961 25.8168 2.59824 40.4319C4.81452 45.4789 7.90607 49.9443 11.5383 53.3456C11.8966 53.6804 12.014 54.1861 11.8467 54.6673C10.3908 58.8196 9.62165 63.3867 9.62165 67.8685C9.62165 81.3407 16.69 93.6661 28.5768 101.132C29.6106 111.806 37.8227 119.964 47.8852 119.964H52.4426H57C67.0863 119.964 75.3134 111.766 76.3098 101.13C88.1965 93.6648 95.2636 81.3407 95.2636 67.8685C95.2636 63.3854 94.4945 58.8196 93.0386 54.6673C92.8713 54.1874 92.9886 53.6804 93.347 53.3456C96.9792 49.943 100.071 45.4775 102.288 40.4292C108.695 25.8168 101.799 2.79686 97.1578 0.382481ZM97.7783 38.0975C95.8567 42.4721 93.1959 46.3248 90.0831 49.2408C88.1516 51.0505 87.4636 54.0071 88.37 56.5964C89.6112 60.14 90.2679 64.0388 90.2679 67.8698C90.2679 78.4953 85.03 88.3412 76.0925 94.893C76.0413 94.5351 75.9851 94.1691 75.9189 93.7895C75.4083 90.8518 74.6079 88.1677 73.5428 85.8143C72.5802 83.6805 71.4489 81.5034 70.249 79.2015C67.3073 73.5499 63.9723 67.1432 62.7986 60.2363C62.0007 55.539 61.8996 50.3497 62.5002 44.8133C62.6612 43.3261 61.6811 41.9786 60.3126 41.8038C58.9379 41.618 57.7018 42.6931 57.5407 44.1802C56.8827 50.2534 56.9988 55.9877 57.8878 61.2205C59.2138 69.0208 62.7674 75.8464 65.9014 81.8681C67.0626 84.0994 68.1601 86.2061 69.0591 88.2016C69.9281 90.1198 70.5849 92.3376 71.0119 94.794C71.354 96.761 71.4439 98.3227 71.4439 98.8731C71.4439 99.0195 71.4452 99.1768 71.4327 99.4086C71.1742 107.895 64.8351 114.541 57 114.541H54.9336V107.077C56.563 106.505 58.1063 105.376 59.3836 103.665L61.8034 100.421C64.1695 97.2491 62.4939 91.8252 59.1477 91.8252H45.7251C42.3789 91.8252 40.702 97.2491 43.0693 100.421L45.4891 103.665C46.7665 105.377 48.3097 106.505 49.9392 107.077V114.541H47.8852C40.0502 114.541 33.711 107.895 33.4476 99.315C33.4388 99.1713 33.4401 99.0181 33.4401 98.8744C33.4401 98.3254 33.53 96.7651 33.8733 94.7954C34.3004 92.3376 34.9571 90.1211 35.8287 88.1975C36.7239 86.2101 37.8202 84.1035 38.9802 81.8762C39.9116 80.0881 40.8743 78.2377 41.8082 76.3059C42.4488 74.9801 41.9793 73.3411 40.7582 72.6457C39.537 71.9503 38.0275 72.4586 37.3857 73.7858C36.4867 75.6444 35.544 77.4568 34.6313 79.2083C33.4338 81.5102 32.3013 83.6833 31.3437 85.8102C30.2761 88.1677 29.4745 90.8532 28.9638 93.7908C28.8976 94.1704 28.8415 94.5364 28.7903 94.8943C19.854 88.3398 14.6161 78.4952 14.6161 67.8685C14.6161 64.0375 15.2728 60.1387 16.514 56.595C17.4217 54.0058 16.7325 51.0492 14.8009 49.2394C11.6881 46.3248 9.02732 42.4707 7.10571 38.0988C1.89402 26.2127 7.67258 8.33732 9.89135 5.36984C13.4149 5.37391 29.8378 11.7806 35.037 23.6627C35.961 25.7626 36.6802 27.8828 37.1747 29.9664C37.6217 31.8521 38.8366 33.3446 40.3748 34.017C41.6322 38.7021 43.9221 49.4346 42.0854 60.2336C41.7046 62.4744 41.0903 64.7519 40.2063 67.1988C39.7031 68.5924 40.3349 70.1649 41.6185 70.7126C41.9181 70.8414 42.2265 70.9024 42.5299 70.9024C43.5263 70.9024 44.469 70.249 44.8549 69.1794C45.8562 66.4071 46.5567 63.8029 46.9962 61.2191C48.8629 50.2358 46.8913 39.4097 45.4979 33.7811C47.7616 33.3934 50.0853 33.1901 52.4414 33.1901C54.7925 33.1901 57.1124 33.3934 59.3836 33.7825C59.1189 34.848 58.8392 36.0749 58.5683 37.4535C58.2799 38.9176 59.1389 40.3587 60.4874 40.6718C60.6635 40.7125 60.8395 40.7315 61.0118 40.7315C62.1643 40.7315 63.2006 39.8598 63.4516 38.5869C63.8174 36.7323 64.1995 35.1734 64.5092 34.017C66.0475 33.3446 67.2611 31.8521 67.7081 29.9664C68.2026 27.8842 68.9217 25.7626 69.8482 23.6587C75.0462 11.782 91.4691 5.37391 94.9914 5.3712C97.2114 8.33732 102.99 26.214 97.7783 38.0975Z" fill="#553535"/>
</svg>
